# AST/ASF file generated using VICON BodyLanguage
# -----------------------------------------------
:version 1.10
:name VICON
:units
  mass 1.0
  length 0.45
  angle deg
:documentation
   .ast/.asf automatically generated from VICON data using
   VICON BodyBuilder and BodyLanguage model FoxedUp or BRILLIANT.MOD
:root
   order TX TY TZ RX RY RZ
   axis XYZ
   position 0 0 0  
   orientation 0 0 0 
:bonedata
  begin
     id 1 
     name lhipjoint
     direction 0.645422 -0.672597 0.361999 
     length 2.39934 
     axis 0 0 0  XYZ
  end
  begin
     id 2 
     name lfemur
     direction 0.34202 -0.939693 0  
     length 6.58112  
     axis 0 0 20  XYZ
    dof rx ry rz
    limits (-160.0 20.0)
           (-70.0 70.0)
           (-60.0 70.0)
  end
  begin
     id 3 
     name ltibia
     direction 0.34202 -0.939693 0   
     length 7.02673   
     axis 0 0 20   XYZ
    dof rx
    limits (-10.0 170.0)
  end
  begin
     id 4 
     name lfoot
     direction 0.0835106 -0.229444 0.969733   
     length 2.08772   
     axis -90 7.62852e-016 20   XYZ
    dof rx rz
    limits (-45.0 90.0)
           (-70.0 20.0)
  end
  begin
     id 5 
     name ltoes
     direction 1.5358e-011 -4.21925e-011 1   
     length 1.04844   
     axis -90 7.62852e-016 20   XYZ
    dof rx
    limits (-90.0 20.0)
  end
  begin
     id 6 
     name rhipjoint
     direction -0.644959 -0.672941 0.362185   
     length 2.39812  
     axis 0 0 0  XYZ 
  end
  begin
     id 7 
     name rfemur
     direction -0.34202 -0.939693 0   
     length 6.67015   
     axis 0 0 -20   XYZ
    dof rx ry rz
    limits (-160.0 20.0)
           (-70.0 70.0)
           (-70.0 60.0)
  end
  begin
     id 8 
     name rtibia
     direction -0.34202 -0.939693 0   
     length 7.35735   
     axis 0 0 -20   XYZ
    dof rx
    limits (-10.0 170.0)
 end
 begin
     id 9 
     name rfoot
     direction -0.0670769 -0.184292 0.98058   
     length 2.25469  
     axis -90 -7.62852e-016 -20   XYZ
    dof rx rz
    limits (-45.0 90.0)
           (-20.0 70.0)
  end
  begin
     id 10 
     name rtoes
     direction -1.53575e-011 -4.21908e-011 1   
     length 1.13399   
     axis -90 -7.62852e-016 -20   XYZ
    dof rx
    limits (-90.0 20.0)
  end
  begin
     id 11 
     name lowerback
     direction -0.0188328 0.993434 -0.112847   
     length 2.27656   
     axis 0 0 0   XYZ
    dof rx ry rz
    limits (-20.0 45.0)
           (-30.0 30.0)
           (-30.0 30.0)
  end
  begin
     id 12 
     name upperback
     direction 0.00983139 0.998968 -0.04435   
     length 2.28631   
     axis 0 0 0   XYZ
    dof rx ry rz
    limits (-20.0 45.0)
           (-30.0 30.0)
           (-30.0 30.0)
  end
  begin
     id 13 
     name thorax
     direction 0.0177718 0.999807 0.00833073   
     length 2.30999   
     axis 0 0 0   XYZ
    dof rx ry rz
    limits (-20.0 45.0)
           (-30.0 30.0)
           (-30.0 30.0)
  end
  begin
     id 14 
     name lowerneck
     direction -0.0835025 0.993181 0.0813558   
     length 1.39447   
     axis 0 0 0   XYZ
    dof rx ry rz
    limits (-20.0 45.0)
           (-30.0 30.0)
           (-30.0 30.0)
  end
  begin
     id 15 
     name upperneck
     direction 0.210059 0.976535 0.0474817   
     length 1.39882   
     axis 0 0 0   XYZ
    dof rx ry rz
    limits (-20.0 45.0)
           (-30.0 30.0)
           (-30.0 30.0)
  end
  begin
     id 16
     name head
     direction 0.0780891 0.996944 -0.00207154  
     length 1.41828  
     axis 0 0 0   XYZ
    dof rx ry rz
    limits (-20.0 45.0)
           (-30.0 30.0)
           (-30.0 30.0)
  end
  begin
     id 17 
     name lclavicle
     direction 0.982414 0.166355 -0.0847829  
     length 3.57922  
     axis 0 0 0   XYZ
    dof ry rz
    limits (-20.0 10.0)
           (0.0 20.0)
  end
  begin
     id 18 
     name lhumerus
     direction 1 -4.48975e-011 5.47647e-028   
     length 4.76405   
     axis -180 -30 -90   XYZ
    dof rx ry rz
    limits (-60.0 90.0)
           (-90.0 90.0)
           (-90.0 90.0)
  end
  begin
     id 19
     name lradius
     direction 1 -4.48949e-011 -8.32142e-027   
     length 3.13759   
     axis -180 -30 -90   XYZ
    dof rx
    limits (-10.0 170.0)
  end
  begin
     id 20
     name lwrist
     direction 1 -4.48978e-011 -1.32705e-026   
     length 1.56879   
     axis 9.60836e-015 90 90   XYZ
    dof ry
    limits (-180.0 0.0)
 end
  begin
     id 21 
     name lhand
     direction 1 -4.48975e-011 -2.65409e-026   
     length 0.732262   
     axis 1.69354e-014 90 90   XYZ
    dof rx rz
    limits (-90.0 90.0)
           (-45.0 45.0)
  end
  begin
     id 22 
     name lfingers
     direction 1 -4.48923e-011 -5.30819e-026   
     length 0.590368   
     axis 3.38708e-014 90 90   XYZ
    dof rx
    limits (0.0 90.0)
  end
  begin
     id 23
     name lthumb
     direction 0.707107 -6.34914e-011 0.707107   
     length 0.847654   
     axis -90 45 2.85299e-015   XYZ
    dof rx rz
    limits (-45.0 45.0)
           (-45.0 45.0)
  end
  begin
     id 24 
     name rclavicle
     direction -0.963658 0.245183 -0.106063   
     length 3.43472  
     axis 0 0 0   XYZ 
    dof ry rz
    limits (-10.0 20.0)
           (-20.0 0.0)
  end
  begin
     id 25 
     name rhumerus
     direction -1 -4.48963e-011 -1.64784e-027  
     length 5.10161   
     axis -180 30 90   XYZ
    dof rx ry rz
    limits (-90.0 60.0)
           (-90.0 90.0)
           (-90.0 90.0)
  end
  begin
     id 26 
     name rradius
     direction -1 -4.48969e-011 -2.87943e-027   
     length 3.23267   
     axis -180 30 90   XYZ
    dof rx
    limits (-10.0 170.0)
  end
  begin
     id 27 
     name rwrist
     direction -1 -4.48982e-011 -1.32705e-026   
     length 1.61633   
     axis 9.60836e-015 -90 -90   XYZ
    dof ry
    limits (-180.0 0.0)
  end
  begin
     id 28
     name rhand
     direction -1 -4.48963e-011 -2.65409e-026   
     length 0.702   
     axis 1.69354e-014 -90 -90   XYZ
    dof rx rz
    limits (-90.0 90.0)
           (-45.0 45.0)
  end
  begin
     id 29
     name rfingers
     direction -1 -4.48934e-011 -5.30819e-026   
     length 0.565971   
     axis 3.38708e-014 -90 -90   XYZ
    dof rx
    limits (0.0 90.0)
  end
  begin
     id 30
     name rthumb
     direction -0.707107 -6.34908e-011 0.707107   
     length 0.812624   
     axis -90 -45 -2.85299e-015   XYZ
    dof rx rz
    limits (-45.0 45.0)
           (-45.0 45.0)
  end
:hierarchy
  begin
    root lhipjoint rhipjoint lowerback
    lhipjoint lfemur
    lfemur ltibia
    ltibia lfoot
    lfoot ltoes
    rhipjoint rfemur
    rfemur rtibia
    rtibia rfoot
    rfoot rtoes
    lowerback upperback
    upperback thorax
    thorax lowerneck lclavicle rclavicle
    lowerneck upperneck
    upperneck head
    lclavicle lhumerus
    lhumerus lradius
    lradius lwrist
    lwrist lhand lthumb
    lhand lfingers
    rclavicle rhumerus
    rhumerus rradius
    rradius rwrist
    rwrist rhand rthumb
    rhand rfingers
  end

#!OML:ASF \\sashay\E\basketball\basketball\Project 1\Capture day 1\Session 1\Subject.ASF
:FULLY-SPECIFIED
:DEGREES
65
root 16.3402 15.8093 -0.259781 158.563 88.2429 155.234
lowerback 12.6391 2.6111 0.430414
upperback 6.67162 3.87067 2.70043
thorax -0.244598 2.0441 2.07339
lowerneck -4.09011 -8.07353 -14.2209
upperneck -21.2552 -7.38919 19.2973
head -4.07437 -3.35852 8.68561
rclavicle -3.26007e-014 1.43125e-014
rhumerus -25.3572 9.65592 -96.085
rradius 109.879
rwrist -12.1124
rhand -34.252 53.1338
rfingers 7.12502
rthumb -7.42277 23.284
lclavicle -3.26007e-014 1.43125e-014
lhumerus -79.5634 -21.1319 110.331
lradius 64.4217
lwrist 26.825
lhand -35.5423 39.7118
lfingers 7.12502
lthumb -8.66808 69.5138
rfemur -0.662369 -5.0431 24.2393
rtibia 34.236
rfoot -16.5432 0.727279
rtoes -25.9956
lfemur -38.204 17.3267 -15.5484
ltibia 125.668
lfoot 4.68304 -3.89265
ltoes -15.2858
66
root 17.0021 15.8813 -0.25392 160.174 88.2992 156.797
lowerback 12.3442 3.2398 0.0908377
upperback 6.47254 4.64691 2.75043
thorax -0.350584 2.41692 2.22288
lowerneck -3.52347 -8.56579 -14.3675
upperneck -21.5135 -8.02233 20.0035
head -4.07468 -3.72525 8.95993
rclavicle -6.52014e-014 -3.18055e-015
rhumerus -24.0699 8.99414 -95.2387
rradius 112.715
rwrist -12.4888
rhand -34.3458 53.8047
rfingers 7.12502
rthumb -7.51337 23.9582
lclavicle -6.52014e-014 -3.18055e-015
lhumerus -82.2609 -21.7606 110.941
lradius 66.2437
lwrist 26.8874
lhand -35.3732 38.4124
lfingers 7.12502
lthumb -8.50498 68.2212
rfemur 2.90096 -5.28599 23.789
rtibia 31.6897
rfoot -13.6329 3.66027
rtoes -24.7502
lfemur -41.7409 15.7012 -17.7726
ltibia 123.233
lfoot 4.53292 -2.87555
ltoes -16.2311
67
root 17.6814 15.9587 -0.252394 169.836 88.4142 166.474
lowerback 11.9781 3.84986 0.111587
upperback 6.30678 5.43891 2.77245
thorax -0.358216 2.80705 2.14984
lowerneck -2.88666 -9.01004 -14.6031
upperneck -21.7413 -8.57366 20.9101
head -4.06471 -4.06186 9.32338
rclavicle -5.28767e-014 2.38542e-014
rhumerus -23.0052 8.37952 -94.3202
rradius 115.455
rwrist -13.3849
rhand -34.4358 52.7566
rfingers 7.12502
rthumb -7.60017 22.9131
lclavicle -5.28767e-014 2.38542e-014
lhumerus -84.8444 -22.4325 111.346
lradius 68.1695
lwrist 26.9696
lhand -35.1848 36.987
lfingers 7.12502
lthumb -8.32316 66.8031
rfemur 6.68196 -5.5951 23.4402
rtibia 28.6918
rfoot -9.60681 7.00147
rtoes -21.5878
lfemur -44.4126 14.0929 -19.2334
ltibia 120.208
lfoot 4.19779 -2.13856
ltoes -16.6004
68
root 18.3737 16.0359 -0.256427 183.728 88.3033 180.429
lowerback 11.6387 4.43232 0.409449
upperback 6.17281 6.22596 2.7722
thorax -0.314462 3.20213 1.90723
lowerneck -2.59092 -9.54397 -15.0778
upperneck -21.7651 -9.21984 21.9539
head -3.88466 -4.41915 9.7375
rclavicle -1.15295e-014 -1.59028e-014
rhumerus -22.1415 7.68173 -93.17
rradius 117.986
rwrist -14.6271
rhand -35.0492 53.7777
rfingers 7.12502
rthumb -8.19222 23.9565
lclavicle -1.15295e-014 -1.59028e-014
lhumerus -87.2884 -23.2837 111.721
lradius 70.1533
lwrist 27.3685
lhand -34.8929 35.5714
lfingers 7.12502
lthumb -8.04138 65.3984
rfemur 10.6455 -5.96627 23.0826
rtibia 25.2104
rfoot -3.2833 9.95046
rtoes -9.78819
lfemur -46.5254 12.3113 -20.3132
ltibia 116.661
lfoot 3.7409 -1.57752
ltoes -17.4773
69
root 19.07 16.1108 -0.262898 195.059 88.0985 191.684
lowerback 11.2061 4.89194 0.819536
upperback 5.71419 6.84083 2.53749
thorax -0.504116 3.50633 1.37973
lowerneck -2.1081 -9.98605 -14.9298
upperneck -21.3444 -9.89638 22.5449
head -3.66869 -4.83395 9.86742
rclavicle -1.66979e-014 3.89618e-014
rhumerus -22.0864 7.20991 -92.5455
rradius 120.319
rwrist -15.9226
rhand -35.5109 54.0726
rfingers 7.12502
rthumb -8.63784 24.2693
lclavicle -1.66979e-014 3.89618e-014
lhumerus -90.0246 -23.7597 111.599
lradius 72.2196
lwrist 27.8658
lhand -33.8908 34.9435
lfingers 7.12502
lthumb -7.07417 64.8053
rfemur 14.5552 -5.91261 22.8636
rtibia 21.3226
rfoot 4.51771 9.81038
rtoes 3.84389
lfemur -48.4545 10.6713 -21.175
ltibia 112.743
lfoot 2.89614 -1.19442
ltoes -19.2025
70
root 19.7738 16.1822 -0.267732 197.411 87.9322 193.823
lowerback 10.5663 5.36513 1.10704
upperback 5.37797 7.45363 2.10438
thorax -0.426765 3.80991 0.75494
lowerneck -1.89557 -10.4645 -14.8298
upperneck -21.1232 -10.514 23.3256
head -3.45279 -5.20062 10.0661
rclavicle -2.42517e-014 3.97569e-015
rhumerus -22.0175 6.71393 -91.9952
rradius 122.576
rwrist -16.9566
rhand -35.9346 54.3785
rfingers 7.12502
rthumb -9.04672 24.5925
lclavicle -2.42517e-014 3.97569e-015
lhumerus -92.3526 -24.5857 111.267
lradius 74.2146
lwrist 28.7321
lhand -32.9524 34.3449
lfingers 7.12502
lthumb -6.16826 64.2351
rfemur 18.3747 -5.52445 22.5692
rtibia 17.4504
rfoot 10.5065 7.79878
rtoes 4.37121
lfemur -50.0843 9.17811 -22.0422
ltibia 108.44
lfoot 2.69024 -0.870831
ltoes -19.9994
71
root 20.4836 16.2494 -0.270469 193.336 87.6293 189.528
lowerback 9.90989 5.77562 1.05681
upperback 5.02466 7.95573 1.72947
thorax -0.395013 4.05182 0.395962
lowerneck -2.59808 -11.1933 -14.7197
upperneck -19.9215 -11.6037 23.6649
head -2.74858 -5.72936 9.94913
rclavicle -1.07344e-014 -7.95139e-016
rhumerus -22.2629 6.44027 -91.1579
rradius 124.775
rwrist -17.8492
rhand -36.3717 55.5355
rfingers 7.12502
rthumb -9.46843 25.7682
lclavicle -1.07344e-014 -7.95139e-016
lhumerus -94.6824 -25.3489 111.196
lradius 76.0788
lwrist 29.722
lhand -32.49 33.2872
lfingers 7.12502
lthumb -5.72187 63.1899
rfemur 22.1858 -5.08031 22.2488
rtibia 13.9462
rfoot 11.4217 6.23408
rtoes -7.26178
lfemur -51.379 7.63935 -22.9112
ltibia 103.7
lfoot 2.56409 -0.618402
ltoes -20.8334
72
root 21.1869 16.3118 -0.270579 191.267 87.0912 187.272
lowerback 9.14514 6.01612 0.761011
upperback 4.80869 8.22519 1.61283
thorax -0.227904 4.1764 0.482467
lowerneck -1.62675 -11.3774 -15.4357
upperneck -20.4576 -11.7784 24.8716
head -2.85596 -5.88624 10.5542
rclavicle -2.96189e-014 2.94201e-014
rhumerus -22.3636 6.92267 -89.9451
rradius 126.475
rwrist -18.0874
rhand -36.9405 57.2496
rfingers 7.12502
rthumb -10.0172 27.508
lclavicle -2.96189e-014 2.94201e-014
lhumerus -96.4186 -25.6011 111.011
lradius 77.8623
lwrist 30.4136
lhand -32.0787 32.391
lfingers 7.12502
lthumb -5.32471 62.3041
rfemur 25.5464 -5.19238 22.1463
rtibia 11.9061
rfoot 10.437 6.39228
rtoes -32.9655
lfemur -52.4098 6.12649 -23.492
ltibia 98.6386
lfoot 2.64341 -0.432083
ltoes -21.7801
73
root 21.8757 16.3435 -0.266642 192.463 86.4402 188.392
lowerback 8.50277 6.14353 0.606712
upperback 4.68477 8.3673 1.53621
thorax -0.0174732 4.24234 0.541577
lowerneck -1.08596 -11.5398 -15.9692
upperneck -20.6255 -11.9587 25.8125
head -2.81882 -6.02089 10.9943
rclavicle 9.8796e-014 -1.03368e-014
rhumerus -22.4695 7.58562 -88.8476
rradius 127.861
rwrist -18.0406
rhand -36.727 58.1299
rfingers 7.12502
rthumb -9.8113 28.3785
lclavicle 9.8796e-014 -1.03368e-014
lhumerus -97.7604 -25.6816 110.503
lradius 79.5889
lwrist 30.9432
lhand -31.6918 31.5104
lfingers 7.12502
lthumb -4.95113 61.4325
rfemur 28.1077 -5.13849 22.4426
rtibia 11.6522
rfoot 10.7297 2.56329
rtoes -37.9335
lfemur -53.2069 4.82274 -23.6464
ltibia 93.44
lfoot 2.96835 -0.275286
ltoes -19.0672
